<svg class="debugbar-icon" xmlns="http://www.w3.org/2000/svg" viewBox="0 0 512 512"><!-- Font Awesome Free 5.15.4 by @fontawesome - https://fontawesome.com License - https://fontawesome.com/license/free (Icons: CC BY 4.0, Fonts: SIL OFL 1.1, Code: MIT License) --><path fill="currentColor" d="m 480,73.143 v 45.714 C 480,159.143 379.667,192 256,192 132.333,192 32,159.143 32,118.857 V 73.143 C 32,32.857 132.333,0 256,0 379.667,0 480,32.857 480,73.143 Z M 480,176 V 278.857 C 480,319.143 379.667,352 256,352 132.333,352 32,319.143 32,278.857 V 176 c 48.125,33.143 136.208,48.572 224,48.572 87.792,0 175.874,-15.429 224,-48.572 z m 0,160 V 438.857 C 480,479.143 379.667,512 256,512 132.333,512 32,479.143 32,438.857 V 336 c 48.125,33.143 136.208,48.572 224,48.572 87.792,0 175.874,-15.429 224,-48.572 z"/></svg>
